PathFileType	4	(X/Y/Z)	 s01c0103.trc
DataRate	CameraRate	NumFrames	NumMarkers	Units	OrigDataRate	OrigDataStartFrame	OrigNumFrames
200	200	4	48	mm	200	1501	2000
Frame#	Time	racr			lacr			c7			jug			rlel			rdr			llel			ldr			s2			lic			ric			lasi			rasi			rpsi			lpsi			rgt			lgt			rth1			rth2			rth3			rth4			rlfc			rsh1			rsh2			rsh3			rsh4			rlmal			rmmal			rcal			rtoe			rmt5			lth1			lth2			lth4			lth3			llfc			lsh1			lsh2			lsh3			lsh4			llmal			lmmal			lcal			ltoe			lmt5			SBIKE			LBIKE			RBIKE			
		X1	Y1	Z1	X2	Y2	Z2	X3	Y3	Z3	X4	Y4	Z4	X5	Y5	Z5	X6	Y6	Z6	X7	Y7	Z7	X8	Y8	Z8	X9	Y9	Z9	X10	Y10	Z10	X11	Y11	Z11	X12	Y12	Z12	X13	Y13	Z13	X14	Y14	Z14	X15	Y15	Z15	X16	Y16	Z16	X17	Y17	Z17	X18	Y18	Z18	X19	Y19	Z19	X20	Y20	Z20	X21	Y21	Z21	X22	Y22	Z22	X23	Y23	Z23	X24	Y24	Z24	X25	Y25	Z25	X26	Y26	Z26	X27	Y27	Z27	X28	Y28	Z28	X29	Y29	Z29	X30	Y30	Z30	X31	Y31	Z31	X32	Y32	Z32	X33	Y33	Z33	X34	Y34	Z34	X35	Y35	Z35	X36	Y36	Z36	X37	Y37	Z37	X38	Y38	Z38	X39	Y39	Z39	X40	Y40	Z40	X41	Y41	Z41	X42	Y42	Z42	X43	Y43	Z43	X44	Y44	Z44	X45	Y45	Z45	X46	Y46	Z46	X47	Y47	Z47	X48	Y48	Z48	
1501	7.5050	497.350126	1326.903263	-103.247114	526.562394	1292.596044	-418.240080	470.042599	1392.215816	-260.093687	457.637294	1225.670735	-258.886462	566.210332	1065.542664	-3.173574	731.379588	861.916485	-59.832666	555.619791	1033.198873	-540.347707	721.421170	867.856343	-436.094603	NaN	NaN	NaN	107.552462	1170.129128	-437.255066	101.994850	1172.154575	-102.471215	114.701930	1117.350252	-402.732506	131.915380	1125.680045	-130.232484	-29.081790	1196.523204	-203.552520	-34.723223	1198.117697	-310.818470	55.566202	1045.379691	-72.116920	71.590733	1049.292813	-454.495575	125.010341	930.645173	-55.061689	175.817489	864.455473	-59.036292	225.558406	789.710993	-72.275145	222.106225	896.125189	-69.832863	271.209297	681.858847	-92.016335	251.145297	567.376820	-58.700686	249.612717	482.633039	-64.118769	239.104627	394.783111	-75.323721	297.056214	481.971320	-102.650944	213.890894	272.244016	-97.654396	258.272694	291.263922	-171.787017	172.802784	250.048486	-151.559166	439.719382	207.291650	-132.165298	332.029429	183.975921	-65.010290	169.972867	980.091737	-455.019911	258.285230	967.293575	-460.557853	267.906519	1019.540101	-447.389482	340.550746	944.598763	-447.790737	430.188258	864.488777	-424.499172	332.354165	811.006369	-451.898450	270.740402	751.090065	-441.085253	207.614258	694.371025	-425.513702	311.475597	714.557393	-411.374442	117.564005	615.548331	-407.200318	145.931527	604.912616	-325.856181	57.742662	614.001470	-361.690720	251.873509	416.950422	-374.551264	160.014370	474.524696	-437.695054	-224.338595	893.206744	-253.383935	-13.008645	84.776805	-457.765758	-22.725699	80.590427	-57.579274	
1502	7.5100	498.164025	1326.787507	-104.228885	525.727688	1295.036129	-418.548750	469.587201	1393.227887	-260.101115	457.411985	1226.673888	-259.564812	567.464968	1065.671097	-4.173141	731.751950	861.047286	-60.155692	555.982237	1035.399570	-538.650000	721.337791	869.097172	-435.509356	NaN	NaN	NaN	106.837393	1171.165757	-436.060485	103.616849	1170.738532	-101.390827	114.045167	1118.117341	-401.324419	132.922525	1124.375389	-128.963261	-28.749795	1195.766277	-200.326667	-35.100744	1197.953735	-307.653400	56.137552	1043.813988	-70.355864	70.565194	1050.911273	-453.190682	123.023992	929.143149	-53.388794	172.197262	861.843897	-57.309487	220.361196	785.860249	-70.210731	218.755840	892.443376	-68.325231	264.355648	677.541223	-90.335256	243.516627	563.107333	-57.451170	241.863027	478.440998	-63.064167	231.433805	390.572638	-74.578691	290.018309	477.740717	-100.726773	207.200983	268.326656	-97.726264	251.156413	286.629088	-171.243989	166.039985	247.270175	-151.560492	432.121152	199.026955	-132.430923	324.156377	177.973237	-65.066221	170.289665	983.091315	-454.398842	258.510806	972.808104	-460.774016	267.150889	1024.968059	-447.238531	341.416966	951.713220	-447.992213	433.821120	874.608279	-425.163126	336.588256	820.310191	-451.754304	275.489652	760.001369	-440.814817	212.976357	702.725451	-425.462286	316.806372	724.009182	-412.110990	124.100378	621.872361	-406.380385	153.012502	611.819121	-325.180142	64.114046	619.265822	-360.836013	260.771095	424.581939	-374.122126	167.997017	480.993958	-437.195429	-224.372152	893.213892	-253.259264	-13.031590	84.839084	-457.747150	-22.731803	80.604102	-57.578004	
1503	7.5150	498.867870	1326.627595	-105.184475	524.874599	1297.449801	-418.785675	469.111494	1394.210710	-260.095837	457.164272	1227.652464	-260.251832	568.911016	1065.796517	-5.155293	732.396187	860.528294	-60.223508	553.647615	1037.064759	-538.820785	721.072677	870.497219	-434.898276	NaN	NaN	NaN	104.983757	1172.056302	-433.976208	105.139706	1169.238799	-100.297299	113.399920	1119.194295	-400.162242	133.826346	1123.251335	-127.817256	-28.562917	1195.141316	-197.214415	-35.586661	1197.943971	-304.559944	56.729726	1042.555029	-68.724622	69.414281	1052.218468	-451.789136	121.149985	928.183575	-51.694874	169.021831	859.829262	-55.590056	215.630384	782.972225	-68.091180	216.151122	889.564137	-66.621339	257.867426	674.331648	-88.646903	236.048441	559.436707	-56.060017	234.279720	474.787848	-61.996118	223.900655	387.024845	-73.836780	283.068580	474.072617	-98.864463	200.260292	265.225581	-97.673720	243.952104	282.708341	-170.647165	159.485434	245.691522	-151.771373	424.205034	191.243500	-132.622358	315.844423	172.429167	-65.284922	170.162514	986.148804	-453.410921	258.475803	977.361438	-460.016011	266.138542	1030.127596	-446.777801	342.019368	958.532974	-448.069215	436.898358	884.536074	-425.891298	340.383797	829.523501	-451.704975	279.975985	768.516792	-440.495088	218.261614	710.600839	-425.099157	321.862693	732.457718	-412.093359	130.593552	627.631352	-405.583605	160.136959	617.936227	-324.509164	70.478937	623.722276	-359.966101	270.173699	432.001935	-374.161970	176.492001	487.158274	-436.672740	-224.447561	893.232397	-253.213277	-13.051196	84.838500	-457.742396	-22.745164	80.616460	-57.577052	
1504	7.5200	499.473461	1326.434201	-106.096945	523.996844	1299.809760	-418.954275	468.636146	1395.131443	-260.080008	456.897238	1228.594410	-260.945062	570.274708	1065.895383	-5.948475	733.299682	860.136450	-60.641463	551.702858	1038.350714	-538.198334	720.728643	872.114657	-434.150524	NaN	NaN	NaN	103.810825	1173.464427	-432.837310	106.578109	1167.757185	-99.332950	112.656035	1120.424396	-399.118845	134.568081	1122.357834	-126.774947	-28.461504	1194.635021	-194.221687	-36.172350	1198.111527	-301.583000	57.218606	1041.771249	-67.109425	68.358236	1053.474926	-450.373976	119.483909	927.611140	-50.115062	166.078885	858.430333	-53.785773	211.507777	780.713226	-65.950981	213.772250	887.406770	-64.964328	251.875503	671.752706	-86.868975	228.720227	556.358752	-54.658114	227.108059	471.855121	-60.751679	216.578948	384.106130	-73.131305	276.073138	470.887882	-97.233755	194.038624	262.948676	-96.202659	236.727080	279.507804	-170.002400	152.451568	244.394466	-151.427809	416.146678	183.811711	-132.828872	307.295023	167.543110	-65.449562	170.230169	989.269191	-452.577328	258.406032	982.215597	-459.411214	265.121930	1034.910715	-446.328725	342.336352	965.040099	-447.898505	439.373000	894.300324	-426.686026	343.921743	838.451276	-451.505822	284.279190	776.775718	-440.253292	223.456313	717.772119	-424.245738	326.884827	740.881577	-412.600058	137.050299	632.538839	-404.878582	166.685738	623.382815	-322.960617	76.820369	627.321200	-359.092542	279.701544	439.033312	-373.978204	185.134596	492.917354	-436.184368	-224.519850	893.225554	-253.132468	-13.074637	84.870521	-457.748452	-22.760027	80.624867	-57.581115	
